<?xml version="1.0" encoding="UTF-8" standalone="no"?>

<svg width="100%" height="100%" viewBox="0 0 126 160" version="1.1" xmlns="http://www.w3.org/2000/svg" xmlns:xlink="http://www.w3.org/1999/xlink" xml:space="preserve" xmlns:serif="http://www.serif.com/" style="fill-rule:evenodd;clip-rule:evenodd;stroke-linejoin:round;stroke-miterlimit:2;">
    <g transform="matrix(1,0,0,1,-960.50666,-2018.513507)">
        <g transform="matrix(0.928313,0,0,2.781822,0,0)">
            <g transform="matrix(1.077223,0,0,0.359477,279.00078,0)">
                <g transform="matrix(222.222222,0,0,222.222222,691.742771,2176.034341)">
                    <path d="M0.327,0.011C0.271,0.011 0.222,-0.001 0.18,-0.025C0.137,-0.049 0.104,-0.081 0.08,-0.123C0.056,-0.164 0.044,-0.212 0.044,-0.266C0.044,-0.319 0.056,-0.367 0.08,-0.408C0.104,-0.449 0.137,-0.482 0.18,-0.505C0.222,-0.528 0.271,-0.54 0.327,-0.54C0.383,-0.54 0.432,-0.528 0.474,-0.505C0.517,-0.482 0.55,-0.449 0.574,-0.408C0.598,-0.367 0.61,-0.319 0.61,-0.266C0.61,-0.212 0.598,-0.164 0.574,-0.123C0.55,-0.081 0.517,-0.049 0.474,-0.025C0.432,-0.001 0.383,0.011 0.327,0.011ZM0.327,-0.094C0.358,-0.094 0.385,-0.101 0.408,-0.116C0.431,-0.13 0.45,-0.15 0.462,-0.175C0.475,-0.201 0.482,-0.231 0.482,-0.266C0.482,-0.3 0.475,-0.33 0.462,-0.355C0.45,-0.381 0.431,-0.4 0.408,-0.414C0.385,-0.428 0.358,-0.435 0.327,-0.435C0.297,-0.435 0.27,-0.428 0.246,-0.414C0.223,-0.4 0.205,-0.381 0.192,-0.355C0.179,-0.33 0.172,-0.3 0.172,-0.266C0.172,-0.231 0.179,-0.201 0.192,-0.175C0.205,-0.15 0.223,-0.13 0.246,-0.116C0.27,-0.101 0.297,-0.094 0.327,-0.094Z" style="fill:rgb(66,59,59);fill-rule:nonzero;"></path>
                </g>
                <g transform="matrix(222.222222,0,0,222.222222,837.076104,2176.034341)">
                </g>
            </g>
        </g>
        <g transform="matrix(0.928313,0,0,2.781822,0,0)">
            <g transform="matrix(0.78653,0,0,0.21115,-676.064552,661.010534)">
                <rect x="2213.586" y="305.934" width="95.297" height="25.226" style="fill:url(#_Linear1);"></rect>
            </g>
        </g>
    </g>
    <defs>
        <linearGradient id="_Linear1" x1="0" y1="0" x2="1" y2="0" gradientUnits="userSpaceOnUse" gradientTransform="matrix(95.29651,0,0,25.225547,2213.585518,318.546822)"><stop offset="0" style="stop-color:rgb(255,170,0);stop-opacity:1"></stop><stop offset="0.5" style="stop-color:rgb(222,49,5);stop-opacity:1"></stop><stop offset="1" style="stop-color:rgb(8,236,243);stop-opacity:1"></stop></linearGradient>
    </defs>
</svg>