<?xml version="1.0" encoding="UTF-8" standalone="no"?>
<!DOCTYPE svg PUBLIC "-//W3C//DTD SVG 1.1//EN" "http://www.w3.org/Graphics/SVG/1.1/DTD/svg11.dtd">
<svg width="100%" height="100%" viewBox="0 0 846 220" version="1.1" xmlns="http://www.w3.org/2000/svg" xmlns:xlink="http://www.w3.org/1999/xlink" xml:space="preserve" xmlns:serif="http://www.serif.com/" style="fill-rule:evenodd;clip-rule:evenodd;stroke-linejoin:round;stroke-miterlimit:2;">
    <g transform="matrix(1,0,0,1,-697.232354,-2007.513507)">
        <g transform="matrix(0.928313,0,0,2.781822,0,0)">
            <g transform="matrix(1.077223,0,0,0.359477,0,0)">
                <g transform="matrix(222.222222,0,0,222.222222,691.742771,2176.034341)">
                    <path d="M0.422,-0.051C0.453,-0.048 0.481,-0.042 0.504,-0.033C0.528,-0.025 0.546,-0.012 0.559,0.005C0.572,0.022 0.579,0.045 0.579,0.073C0.579,0.105 0.568,0.133 0.547,0.156C0.526,0.179 0.494,0.197 0.452,0.209C0.411,0.222 0.359,0.228 0.299,0.228C0.21,0.228 0.143,0.216 0.095,0.19C0.048,0.165 0.025,0.13 0.025,0.087C0.025,0.074 0.026,0.063 0.029,0.053C0.032,0.043 0.036,0.035 0.04,0.028L0.157,0.045C0.155,0.048 0.153,0.052 0.151,0.058C0.149,0.064 0.147,0.071 0.147,0.08C0.147,0.101 0.162,0.116 0.19,0.126C0.218,0.135 0.255,0.14 0.303,0.14C0.337,0.14 0.366,0.138 0.39,0.133C0.413,0.128 0.43,0.121 0.442,0.112C0.454,0.103 0.46,0.093 0.46,0.081C0.46,0.063 0.452,0.052 0.436,0.047C0.42,0.042 0.401,0.039 0.379,0.037L0.178,0.019C0.142,0.015 0.113,0.005 0.09,-0.013C0.067,-0.031 0.055,-0.054 0.055,-0.083C0.055,-0.1 0.06,-0.117 0.069,-0.132C0.079,-0.147 0.089,-0.159 0.101,-0.169C0.114,-0.179 0.124,-0.185 0.133,-0.188L0.207,-0.152C0.2,-0.15 0.191,-0.146 0.181,-0.138C0.172,-0.129 0.167,-0.12 0.167,-0.108C0.167,-0.098 0.171,-0.089 0.181,-0.082C0.19,-0.075 0.208,-0.07 0.235,-0.068L0.422,-0.051ZM0.483,-0.531L0.597,-0.531L0.551,-0.325C0.542,-0.286 0.528,-0.251 0.508,-0.221C0.488,-0.19 0.462,-0.166 0.428,-0.148C0.395,-0.13 0.353,-0.121 0.303,-0.121C0.25,-0.121 0.205,-0.13 0.167,-0.147C0.129,-0.165 0.1,-0.189 0.08,-0.22C0.059,-0.251 0.049,-0.287 0.049,-0.328C0.049,-0.369 0.059,-0.406 0.08,-0.438C0.101,-0.47 0.13,-0.495 0.167,-0.513C0.204,-0.531 0.246,-0.54 0.293,-0.54C0.331,-0.54 0.366,-0.534 0.396,-0.521C0.426,-0.508 0.451,-0.492 0.469,-0.472C0.487,-0.452 0.497,-0.43 0.498,-0.408L0.468,-0.402L0.483,-0.531ZM0.302,-0.22C0.328,-0.22 0.351,-0.224 0.37,-0.233C0.389,-0.241 0.404,-0.254 0.415,-0.27C0.425,-0.287 0.431,-0.306 0.431,-0.33C0.431,-0.353 0.425,-0.372 0.415,-0.389C0.404,-0.405 0.389,-0.418 0.37,-0.427C0.351,-0.435 0.328,-0.44 0.302,-0.44C0.277,-0.44 0.255,-0.435 0.236,-0.426C0.216,-0.417 0.201,-0.404 0.19,-0.388C0.179,-0.371 0.173,-0.351 0.173,-0.328C0.173,-0.306 0.179,-0.286 0.189,-0.27C0.2,-0.254 0.215,-0.241 0.234,-0.233C0.253,-0.224 0.276,-0.22 0.302,-0.22Z" style="fill:rgb(66,60,60);fill-rule:nonzero;"/>
                </g>
                <g transform="matrix(222.222222,0,0,222.222222,818.520549,2176.034341)">
                    <path d="M0.114,-0.224L0.114,-0.316L0.489,-0.316L0.474,-0.29L0.474,-0.304C0.474,-0.327 0.469,-0.349 0.458,-0.37C0.448,-0.391 0.432,-0.408 0.41,-0.42C0.389,-0.433 0.362,-0.44 0.329,-0.44C0.297,-0.44 0.268,-0.433 0.244,-0.419C0.22,-0.405 0.201,-0.385 0.188,-0.36C0.175,-0.334 0.169,-0.303 0.169,-0.267C0.169,-0.23 0.175,-0.199 0.188,-0.172C0.2,-0.146 0.219,-0.126 0.243,-0.112C0.267,-0.097 0.297,-0.09 0.332,-0.09C0.356,-0.09 0.376,-0.093 0.393,-0.097C0.411,-0.102 0.425,-0.108 0.436,-0.116C0.447,-0.123 0.456,-0.131 0.461,-0.14C0.467,-0.149 0.47,-0.158 0.472,-0.167L0.598,-0.167C0.596,-0.145 0.588,-0.124 0.576,-0.102C0.563,-0.081 0.545,-0.062 0.523,-0.045C0.5,-0.028 0.472,-0.014 0.439,-0.004C0.407,0.006 0.369,0.011 0.327,0.011C0.271,0.011 0.221,-0 0.179,-0.024C0.136,-0.047 0.103,-0.08 0.08,-0.121C0.056,-0.163 0.044,-0.21 0.044,-0.264C0.044,-0.319 0.056,-0.367 0.08,-0.408C0.104,-0.45 0.137,-0.482 0.18,-0.505C0.223,-0.528 0.272,-0.54 0.328,-0.54C0.385,-0.54 0.434,-0.528 0.475,-0.505C0.517,-0.482 0.549,-0.449 0.571,-0.408C0.594,-0.366 0.605,-0.318 0.605,-0.264C0.605,-0.257 0.605,-0.249 0.605,-0.241C0.604,-0.233 0.604,-0.227 0.603,-0.224L0.114,-0.224Z" style="fill:rgb(66,60,60);fill-rule:nonzero;"/>
                </g>
                <g transform="matrix(222.222222,0,0,222.222222,956.076104,2176.034341)">
                    <path d="M0.327,0.011C0.271,0.011 0.222,-0.001 0.18,-0.025C0.137,-0.049 0.104,-0.081 0.08,-0.123C0.056,-0.164 0.044,-0.212 0.044,-0.266C0.044,-0.319 0.056,-0.367 0.08,-0.408C0.104,-0.449 0.137,-0.482 0.18,-0.505C0.222,-0.528 0.271,-0.54 0.327,-0.54C0.383,-0.54 0.432,-0.528 0.474,-0.505C0.517,-0.482 0.55,-0.449 0.574,-0.408C0.598,-0.367 0.61,-0.319 0.61,-0.266C0.61,-0.212 0.598,-0.164 0.574,-0.123C0.55,-0.081 0.517,-0.049 0.474,-0.025C0.432,-0.001 0.383,0.011 0.327,0.011ZM0.327,-0.094C0.358,-0.094 0.385,-0.101 0.408,-0.116C0.431,-0.13 0.45,-0.15 0.462,-0.175C0.475,-0.201 0.482,-0.231 0.482,-0.266C0.482,-0.3 0.475,-0.33 0.462,-0.355C0.45,-0.381 0.431,-0.4 0.408,-0.414C0.385,-0.428 0.358,-0.435 0.327,-0.435C0.297,-0.435 0.27,-0.428 0.246,-0.414C0.223,-0.4 0.205,-0.381 0.192,-0.355C0.179,-0.33 0.172,-0.3 0.172,-0.266C0.172,-0.231 0.179,-0.201 0.192,-0.175C0.205,-0.15 0.223,-0.13 0.246,-0.116C0.27,-0.101 0.297,-0.094 0.327,-0.094ZM0.182,-0.65L0.182,-0.704L0.473,-0.704L0.473,-0.65L0.182,-0.65Z" style="fill:rgb(66,60,60);fill-rule:nonzero;"/>
                </g>
                <g transform="matrix(222.222222,0,0,222.222222,1094.742771,2176.034341)">
                    <path d="M0.067,-0L0.067,-0.531L0.194,-0.531L0.194,-0.356L0.164,-0.372C0.167,-0.395 0.173,-0.416 0.182,-0.437C0.191,-0.457 0.203,-0.475 0.218,-0.49C0.232,-0.506 0.251,-0.518 0.272,-0.527C0.293,-0.536 0.318,-0.54 0.345,-0.54C0.367,-0.54 0.384,-0.538 0.396,-0.535C0.409,-0.532 0.417,-0.529 0.42,-0.527L0.396,-0.411C0.393,-0.413 0.386,-0.416 0.376,-0.419C0.366,-0.423 0.352,-0.425 0.335,-0.425C0.308,-0.425 0.285,-0.42 0.267,-0.411C0.249,-0.401 0.235,-0.389 0.224,-0.373C0.213,-0.358 0.206,-0.341 0.201,-0.322C0.196,-0.304 0.194,-0.285 0.194,-0.267L0.194,-0L0.067,-0Z" style="fill:rgb(66,60,60);fill-rule:nonzero;"/>
                </g>
                <g transform="matrix(222.222222,0,0,222.222222,1182.964993,2176.034341)">
                    <path d="M0.422,-0.051C0.453,-0.048 0.481,-0.042 0.504,-0.033C0.528,-0.025 0.546,-0.012 0.559,0.005C0.572,0.022 0.579,0.045 0.579,0.073C0.579,0.105 0.568,0.133 0.547,0.156C0.526,0.179 0.494,0.197 0.452,0.209C0.411,0.222 0.359,0.228 0.299,0.228C0.21,0.228 0.143,0.216 0.095,0.19C0.048,0.165 0.025,0.13 0.025,0.087C0.025,0.074 0.026,0.063 0.029,0.053C0.032,0.043 0.036,0.035 0.04,0.028L0.157,0.045C0.155,0.048 0.153,0.052 0.151,0.058C0.149,0.064 0.147,0.071 0.147,0.08C0.147,0.101 0.162,0.116 0.19,0.126C0.218,0.135 0.255,0.14 0.303,0.14C0.337,0.14 0.366,0.138 0.39,0.133C0.413,0.128 0.43,0.121 0.442,0.112C0.454,0.103 0.46,0.093 0.46,0.081C0.46,0.063 0.452,0.052 0.436,0.047C0.42,0.042 0.401,0.039 0.379,0.037L0.178,0.019C0.142,0.015 0.113,0.005 0.09,-0.013C0.067,-0.031 0.055,-0.054 0.055,-0.083C0.055,-0.1 0.06,-0.117 0.069,-0.132C0.079,-0.147 0.089,-0.159 0.101,-0.169C0.114,-0.179 0.124,-0.185 0.133,-0.188L0.207,-0.152C0.2,-0.15 0.191,-0.146 0.181,-0.138C0.172,-0.129 0.167,-0.12 0.167,-0.108C0.167,-0.098 0.171,-0.089 0.181,-0.082C0.19,-0.075 0.208,-0.07 0.235,-0.068L0.422,-0.051ZM0.483,-0.531L0.597,-0.531L0.551,-0.325C0.542,-0.286 0.528,-0.251 0.508,-0.221C0.488,-0.19 0.462,-0.166 0.428,-0.148C0.395,-0.13 0.353,-0.121 0.303,-0.121C0.25,-0.121 0.205,-0.13 0.167,-0.147C0.129,-0.165 0.1,-0.189 0.08,-0.22C0.059,-0.251 0.049,-0.287 0.049,-0.328C0.049,-0.369 0.059,-0.406 0.08,-0.438C0.101,-0.47 0.13,-0.495 0.167,-0.513C0.204,-0.531 0.246,-0.54 0.293,-0.54C0.331,-0.54 0.366,-0.534 0.396,-0.521C0.426,-0.508 0.451,-0.492 0.469,-0.472C0.487,-0.452 0.497,-0.43 0.498,-0.408L0.468,-0.402L0.483,-0.531ZM0.302,-0.22C0.328,-0.22 0.351,-0.224 0.37,-0.233C0.389,-0.241 0.404,-0.254 0.415,-0.27C0.425,-0.287 0.431,-0.306 0.431,-0.33C0.431,-0.353 0.425,-0.372 0.415,-0.389C0.404,-0.405 0.389,-0.418 0.37,-0.427C0.351,-0.435 0.328,-0.44 0.302,-0.44C0.277,-0.44 0.255,-0.435 0.236,-0.426C0.216,-0.417 0.201,-0.404 0.19,-0.388C0.179,-0.371 0.173,-0.351 0.173,-0.328C0.173,-0.306 0.179,-0.286 0.189,-0.27C0.2,-0.254 0.215,-0.241 0.234,-0.233C0.253,-0.224 0.276,-0.22 0.302,-0.22Z" style="fill:rgb(66,60,60);fill-rule:nonzero;"/>
                </g>
                <g transform="matrix(222.222222,0,0,222.222222,1314.520549,2176.034341)">
                    <path d="M0.065,-0L0.065,-0.531L0.191,-0.531L0.191,-0L0.065,-0ZM0.128,-0.632C0.108,-0.632 0.09,-0.637 0.074,-0.648C0.059,-0.66 0.051,-0.675 0.051,-0.695C0.051,-0.715 0.059,-0.731 0.074,-0.742C0.09,-0.753 0.108,-0.758 0.128,-0.758C0.149,-0.758 0.167,-0.753 0.182,-0.742C0.197,-0.731 0.205,-0.715 0.205,-0.695C0.205,-0.675 0.197,-0.659 0.182,-0.648C0.167,-0.637 0.149,-0.632 0.128,-0.632Z" style="fill:rgb(66,60,60);fill-rule:nonzero;"/>
                </g>
                <g transform="matrix(222.222222,0,0,222.222222,1364.853882,2176.034341)">
                    <path d="M0.249,0.011C0.21,0.011 0.175,0.004 0.145,-0.008C0.115,-0.02 0.091,-0.039 0.074,-0.062C0.057,-0.086 0.049,-0.114 0.049,-0.148C0.049,-0.184 0.059,-0.214 0.078,-0.237C0.098,-0.261 0.125,-0.279 0.158,-0.292C0.192,-0.304 0.229,-0.313 0.27,-0.317C0.332,-0.323 0.374,-0.329 0.399,-0.334C0.423,-0.339 0.435,-0.349 0.435,-0.361L0.435,-0.362C0.435,-0.387 0.425,-0.405 0.403,-0.418C0.382,-0.431 0.352,-0.437 0.313,-0.437C0.271,-0.437 0.24,-0.43 0.218,-0.415C0.195,-0.401 0.184,-0.378 0.184,-0.347L0.059,-0.347C0.059,-0.388 0.07,-0.423 0.092,-0.452C0.114,-0.481 0.144,-0.503 0.183,-0.518C0.221,-0.533 0.265,-0.54 0.314,-0.54C0.359,-0.54 0.4,-0.533 0.438,-0.52C0.476,-0.506 0.506,-0.485 0.529,-0.458C0.551,-0.43 0.563,-0.396 0.563,-0.355L0.563,-0.111C0.563,-0.098 0.563,-0.086 0.564,-0.074C0.565,-0.062 0.567,-0.051 0.57,-0.042C0.573,-0.031 0.577,-0.022 0.581,-0.015C0.586,-0.008 0.589,-0.003 0.592,-0L0.467,-0C0.464,-0.002 0.461,-0.007 0.457,-0.013C0.453,-0.02 0.449,-0.028 0.446,-0.037C0.443,-0.047 0.44,-0.057 0.439,-0.069C0.437,-0.08 0.436,-0.092 0.436,-0.106L0.461,-0.089C0.451,-0.069 0.436,-0.051 0.415,-0.036C0.395,-0.021 0.371,-0.01 0.342,-0.002C0.314,0.007 0.283,0.011 0.249,0.011ZM0.279,-0.09C0.308,-0.09 0.334,-0.094 0.357,-0.104C0.381,-0.113 0.4,-0.128 0.415,-0.148C0.429,-0.167 0.437,-0.192 0.437,-0.223L0.437,-0.297L0.467,-0.262C0.446,-0.254 0.42,-0.247 0.39,-0.242C0.36,-0.237 0.329,-0.233 0.298,-0.23C0.258,-0.226 0.227,-0.219 0.207,-0.209C0.187,-0.199 0.176,-0.182 0.176,-0.158C0.176,-0.135 0.185,-0.118 0.202,-0.107C0.219,-0.095 0.245,-0.09 0.279,-0.09Z" style="fill:rgb(66,60,60);fill-rule:nonzero;"/>
                </g>
                <g transform="matrix(222.222222,0,0,222.222222,1496.076104,2176.034341)">
                    <path d="M0.139,0.014C0.119,0.014 0.101,0.007 0.087,-0.007C0.073,-0.021 0.066,-0.038 0.066,-0.059C0.066,-0.078 0.073,-0.096 0.087,-0.11C0.101,-0.124 0.119,-0.131 0.139,-0.131C0.159,-0.131 0.176,-0.124 0.19,-0.11C0.204,-0.096 0.211,-0.078 0.211,-0.059C0.211,-0.038 0.204,-0.021 0.19,-0.007C0.176,0.007 0.159,0.014 0.139,0.014Z" style="fill:rgb(66,60,60);fill-rule:nonzero;"/>
                </g>
                <g transform="matrix(222.222222,0,0,222.222222,1557.742771,2176.034341)">
                </g>
            </g>
        </g>
        <g transform="matrix(0.928313,0,0,2.781822,0,0)">
            <g transform="matrix(0.78653,0,0,0.21115,-669.567093,661.010534)">
                <rect x="2213.586" y="305.934" width="95.297" height="25.226" style="fill:url(#_Linear1);"/>
            </g>
        </g>
    </g>
    <defs>
        <linearGradient id="_Linear1" x1="0" y1="0" x2="1" y2="0" gradientUnits="userSpaceOnUse" gradientTransform="matrix(95.29651,0,0,25.225547,2213.585518,318.546822)"><stop offset="0" style="stop-color:rgb(255,170,0);stop-opacity:1"/><stop offset="0.51" style="stop-color:rgb(222,5,56);stop-opacity:1"/><stop offset="1" style="stop-color:rgb(8,236,243);stop-opacity:1"/></linearGradient>
    </defs>
</svg>
